<?xml version="1.0" standalone="no"?>
<!DOCTYPE svg PUBLIC "-//W3C//DTD SVG 20010904//EN"
 "http://www.w3.org/TR/2001/REC-SVG-20010904/DTD/svg10.dtd">
<svg version="1.0" xmlns="http://www.w3.org/2000/svg"
 width="278.000000pt" height="278.000000pt" viewBox="0 0 278.000000 278.000000"
 preserveAspectRatio="xMidYMid meet">
<metadata>
Created by potrace 1.14, written by Peter Selinger 2001-2017
</metadata>
<g transform="translate(0.000000,278.000000) scale(0.100000,-0.100000)"
fill="#000000" stroke="none">
<path d="M123 1680 c-32 -13 -35 -53 -31 -410 3 -297 4 -317 23 -342 27 -35
65 -57 106 -60 l34 -3 3 314 c1 209 6 317 13 322 6 3 25 3 42 0 l32 -7 3 -308
2 -309 71 7 c39 4 77 10 85 13 11 4 14 51 14 257 0 266 0 266 -49 316 -13 13
-8 15 44 18 32 2 64 1 71 -2 11 -4 14 -63 16 -293 l3 -288 75 4 c41 1 78 5 83
8 11 7 9 631 -3 654 -17 32 -62 47 -164 58 -101 10 -119 8 -149 -17 -16 -14
-20 -13 -47 16 -22 25 -42 35 -82 42 -91 15 -172 20 -195 10z"/>
<path d="M2510 1680 c-30 -5 -85 -11 -122 -16 -38 -4 -68 -10 -68 -14 0 -4
-23 -10 -52 -12 -42 -4 -57 -11 -80 -37 l-28 -31 0 -330 c0 -181 3 -331 8
-333 4 -3 42 -8 85 -12 l77 -7 0 135 c0 74 3 142 6 151 5 13 22 16 84 16 54 0
79 -4 83 -13 2 -7 5 -77 6 -157 1 -80 6 -149 11 -154 18 -18 91 16 124 57 l31
39 0 345 0 345 -24 19 c-24 20 -49 21 -141 9z m-9 -204 c5 -16 7 -49 5 -75
l-2 -46 -55 -7 c-85 -10 -159 -9 -159 2 0 6 9 19 20 30 13 13 20 33 20 59 0
50 13 59 85 63 80 5 78 6 86 -26z"/>
<path d="M1892 1420 c-112 -4 -145 -8 -152 -20 -5 -8 -10 -68 -10 -133 0 -140
-7 -133 145 -144 l100 -8 0 -45 0 -45 -55 0 c-50 0 -56 2 -68 28 -12 25 -18
27 -68 27 l-54 0 0 -60 c0 -81 9 -85 189 -99 188 -15 181 -21 181 145 0 146
-4 154 -84 154 -29 0 -80 3 -113 6 l-59 6 5 42 6 41 62 3 c58 3 62 1 65 -20 3
-21 8 -23 58 -23 l55 0 3 58 c2 32 -2 65 -8 72 -16 19 -39 21 -198 15z"/>
<path d="M890 1413 c-8 -3 -18 -11 -22 -17 -4 -6 -8 -114 -8 -239 l0 -228 58
3 57 3 5 95 5 95 57 3 57 3 3 -93 3 -93 60 0 60 0 3 215 c2 172 0 220 -12 235
-12 17 -29 19 -162 22 -82 1 -156 0 -164 -4z m210 -138 c0 -43 -1 -45 -30 -46
-86 -4 -95 -3 -94 9 1 6 2 28 3 47 l1 35 60 0 60 0 0 -45z"/>
<path d="M1553 1413 c-7 -2 -13 -18 -13 -34 0 -38 -15 -37 -35 1 l-16 31 -97
-3 -97 -3 0 -230 0 -230 60 0 60 0 5 154 c6 173 1 170 76 56 34 -53 40 -69 44
-135 l5 -75 58 -3 c49 -3 57 -1 58 15 6 117 3 441 -4 451 -9 12 -79 16 -104 5z"/>
</g>
</svg>
